Coordinates
version=1
nRows=13
nColumns=36
inDegrees=yes

Units are S.I. units (second, meters, Newtons, ...)
If the header above contains a line with 'inDegrees', this indicates whether rotational values are in degrees (yes) or radians (no).

endheader
time	pelvis_tilt	pelvis_list	pelvis_rotation	pelvis_tx	pelvis_ty	pelvis_tz	hip_flexion_r	hip_adduction_r	hip_rotation_r	knee_angle_r	knee_angle_r_beta	ankle_angle_r	subtalar_angle_r	mtp_angle_r	hip_flexion_l	hip_adduction_l	hip_rotation_l	knee_angle_l	knee_angle_l_beta	ankle_angle_l	subtalar_angle_l	mtp_angle_l	lumbar_extension	lumbar_bending	lumbar_rotation	arm_flex_r	arm_add_r	arm_rot_r	elbow_flex_r	pro_sup_r	arm_flex_l	arm_add_l	arm_rot_l	elbow_flex_l	pro_sup_l
      4.38333330	     -2.03160290	      0.18919135	     -1.52966855	      1.17627869	      0.91350284	      0.18347859	     27.77464524	      7.43083669	      3.22312949	     43.64722243	      0.76178774	     22.06718167	      2.98322773	     -7.49999987	     46.45456180	    -13.03035493	     -4.07795666	     28.74094588	      0.50162414	     -3.59401540	     -4.94636357	     -7.49999987	    -13.07686610	      6.00099947	      2.76325082	     62.64466422	     -2.97409826	     69.55717431	    122.92544311	     84.62585349	     62.12270155	    -12.78841461	     53.96415930	    125.12191400	     99.02736608
      4.40000000	     -2.41263763	     -0.02213294	     -1.53629763	      1.17170639	      0.90583977	      0.18641075	     29.18685928	      7.64873375	      2.84930404	     45.31805984	      0.79094935	     22.80901654	      2.79863978	     -7.49999987	     47.76477755	    -13.34859163	     -3.37615435	     29.04715547	      0.50696850	     -3.87213554	     -5.55862165	     -7.49999987	    -13.30597809	      6.05509947	      3.57286021	     63.08907046	     -4.13038834	     69.70204511	    124.24740857	     85.30132772	     62.68364410	    -12.53104336	     53.95001130	    123.75165687	     99.69042839
      4.41666670	     -2.53996189	     -0.19915176	     -1.45430085	      1.17099040	      0.90128210	      0.18597241	     30.07090225	      7.85570462	      2.60169690	     46.59740272	      0.81327810	     23.31591019	      2.30654110	     -7.49999987	     48.56218635	    -13.65474036	     -3.03139615	     29.06017406	      0.50719572	     -4.23853446	     -5.93991642	     -7.49999987	    -13.83874681	      6.28907469	      4.02608250	     64.07992014	     -4.77096904	     70.43401473	    124.44244933	     85.16567372	     63.26435867	    -12.25658845	     54.67364116	    124.04104801	    100.35675964
      4.43333330	     -2.97734749	     -0.45652310	     -1.48990529	      1.17051028	      0.89015163	      0.18576912	     31.53737958	      8.14990556	      2.22909537	     48.29278349	      0.84286808	     24.06168489	      2.31239308	     -7.49999987	     50.04376536	    -14.08764287	     -2.33030236	     29.22886419	      0.51013992	     -4.36722178	     -6.38886333	     -7.49999987	    -13.86457871	      6.57166338	      4.38069865	     65.29634462	     -4.63329323	     70.04252473	    124.98900180	     84.65378696	     65.09018938	    -11.11067410	     55.05604146	    123.83810270	     99.23954936
      4.45000000	     -3.49837460	     -0.79673436	     -1.44623643	      1.16958280	      0.88226406	      0.18485502	     33.20894281	      8.50916015	      1.76656628	     50.30596682	      0.87800475	     25.12352172	      2.38471952	     -7.49999987	     51.70352586	    -14.38000739	     -1.30354256	     29.69440908	      0.51826521	     -4.18374122	     -6.98550979	     -7.49999987	    -13.85889834	      6.95401102	      4.72147494	     66.16367806	     -5.33737480	     70.09087174	    126.05856431	     84.85004253	     66.28460341	    -10.22923531	     54.55655368	    123.82866596	     99.44434995
      4.46666670	     -4.29629965	     -0.98695578	     -1.50950793	      1.16437119	      0.87588779	      0.18146675	     35.25538185	      8.65300546	      1.46506795	     52.33311879	      0.91338523	     25.84308437	      2.13410930	     -7.49999987	     53.56756341	    -14.50915681	     -0.42408443	     30.13403982	      0.52593821	     -4.18424727	     -7.60550600	     -7.49999987	    -13.60350655	      7.08017603	      5.61039217	     66.85423066	     -6.87364002	     68.96615629	    126.65208640	     85.33581392	     67.61722996	     -9.07521394	     54.78042731	    123.25794621	    100.28711911
      4.48333330	     -4.86665689	     -1.19362818	     -1.42608003	      1.16362153	      0.86725692	      0.18181212	     36.83484091	      8.76333601	      1.07343102	     53.98253793	      0.94217303	     26.46310186	      1.97557592	     -7.49999987	     55.00154214	    -14.65148074	      0.33596061	     30.32467033	      0.52926534	     -4.70369348	     -8.36172345	     -7.49999987	    -13.47567108	      7.28251627	      5.68401518	     67.78254734	     -7.82783740	     69.86549612	    127.81390618	     84.37440194	     68.60582769	     -8.88376170	     54.94963786	    122.63255206	     98.85950567
      4.50000000	     -5.49825783	     -1.30610643	     -1.35853790	      1.15913542	      0.86617466	      0.18453952	     38.33597356	      8.88458698	      0.87446854	     55.30607988	      0.96527319	     26.82557024	      1.39154955	     -7.49999987	     56.27409577	    -14.78132896	      0.87395668	     30.44413077	      0.53135032	     -5.53578148	     -8.91219167	     -7.49999987	    -13.72192741	      7.30755574	      5.61126268	     68.36914713	     -8.31872022	     71.02259029	    128.32153551	     84.73796221	     69.01078165	     -9.65418327	     55.23356766	    121.70901995	     99.28908805
      4.51666670	     -6.10777796	     -1.34639266	     -1.34898488	      1.15940094	      0.86269630	      0.18508863	     39.55795807	      8.97277565	      0.82697770	     56.28289592	      0.98232185	     27.18695048	      1.00525750	     -7.49999987	     57.20297545	    -14.89526738	      1.05382469	     30.22091193	      0.52745442	     -6.35413984	     -9.42459368	     -7.49999987	    -14.09701985	      7.34893798	      6.11938083	     69.20520793	     -8.50524460	     70.87292696	    126.39989917	     84.78515473	     70.05686979	     -9.45347158	     57.26797853	    122.40772365	     99.58362784
      4.53333330	     -6.72400859	     -1.47058336	     -1.51818866	      1.15928780	      0.85797207	      0.18483949	     40.74081812	      9.20448490	      0.71748500	     57.07014286	      0.99606190	     27.50168495	      0.89599885	     -7.49999987	     58.01529300	    -15.17372182	      1.26797010	     29.84831045	      0.52095129	     -6.95489042	     -9.68496444	     -7.49999987	    -14.10325341	      7.28277119	      6.94143602	     68.64777562	     -9.06548078	     70.10759317	    125.53147879	     88.44234565	     70.16163513	     -8.87678690	     58.37719612	    122.60866528	    103.31691317
      4.55000000	     -7.32749727	     -1.42889427	     -1.61844558	      1.15994123	      0.85507725	      0.18533963	     41.97237810	      9.26358786	      0.72962561	     58.04426268	      1.01306350	     27.72899302	      0.53279504	     -7.49999987	     58.93594160	    -15.30361217	      1.46746247	     29.87818575	      0.52147272	     -7.13713929	     -9.96279373	     -7.49999987	    -14.29908904	      7.30376454	      6.74686616	     68.48566267	     -8.96273394	     70.54327455	    126.45961835	     88.06346438	     70.60344572	     -9.28875897	     58.69767682	    123.27145016	    103.15149626
      4.56666670	     -7.78962446	     -1.45260644	     -1.80104137	      1.16017969	      0.85396823	      0.18551653	     42.68845411	      9.50110331	      0.85894502	     58.36131417	      1.01859709	     27.74727123	      0.08188562	     -7.49999987	     59.33851433	    -15.48155085	      1.44935830	     29.38473942	      0.51286045	     -7.67702928	    -10.23566621	     -7.49999987	    -14.32925255	      7.33234271	      6.82808457	     68.04302413	     -8.84182218	     70.37833810	    126.04338198	     87.76461469	     70.85669870	     -9.33444886	     59.24830168	    123.90024346	    101.89650816
      4.58333330	     -8.08674849	     -1.41597365	     -2.09565256	      1.16035915	      0.85110544	      0.18616816	     43.29614484	      9.66463912	      0.98866245	     58.78686894	      1.02602442	     27.67998312	     -0.22327602	     -7.49999987	     59.50979735	    -15.68182372	      1.35995575	     29.04769940	      0.50697799	     -7.87392013	    -10.13122290	     -7.49999987	    -14.75020052	      7.29404262	      6.94708150	     67.97252331	     -9.09516641	     69.71235342	    125.40369726	     87.28926672	     71.00438903	     -9.55039478	     58.58836385	    123.88367339	    100.41709405
